#!OML:ASF H:\Dans Jumps\Project 1\Capture day 1\Session 1\subject.ASF
:FULLY-SPECIFIED
:DEGREES
131
root 0.638479 17.4379 -14.15 5.60801 -1.2622 -1.24726
lowerback 0.048958 -0.533625 0.113552
upperback 4.11673 -0.774648 1.63016
thorax 4.23268 -0.415308 1.58924
lowerneck -13.2467 0.735436 -1.97237
upperneck 33.1557 1.47808 0.390472
head 13.3326 0.44358 0.720303
rclavicle 1.27222e-014 -8.74653e-015
rhumerus -24.28 -16.2545 -79.4127
rradius 24.8917
rwrist 31.2844
rhand -18.5349 -26.2393
rfingers 7.12502
rthumb 7.75412 -56.0771
lclavicle 1.27222e-014 -8.74653e-015
lhumerus -20.342 1.19878 87.0069
lradius 18.6985
lwrist 2.71861
lhand -25.5443 -3.33581
lfingers 7.12502
lthumb 0.985851 26.6417
rfemur -16.2108 -1.13972 19.4325
rtibia 27.355
rfoot -15.3444 -3.15713
rtoes 9.37361
lfemur -14.9846 7.81324 -19.5562
ltibia 25.1118
lfoot -13.4643 5.22898
ltoes 3.2163
132
root 0.638964 17.4381 -14.1497 5.60957 -1.25684 -1.24819
lowerback 0.0517734 -0.535416 0.110136
upperback 4.11617 -0.776878 1.62904
thorax 4.2306 -0.416511 1.58995
lowerneck -13.2522 0.738622 -1.96782
upperneck 33.1541 1.48246 0.388052
head 13.3331 0.445736 0.719239
rclavicle -5.46658e-016 -1.98785e-014
rhumerus -24.2757 -16.2528 -79.4216
rradius 24.8995
rwrist 31.273
rhand -18.5275 -26.243
rfingers 7.12502
rthumb 7.76118 -56.0806
lclavicle -5.46658e-016 -1.98785e-014
lhumerus -20.3369 1.18124 87.0178
lradius 18.7014
lwrist 2.73579
lhand -25.5624 -3.34701
lfingers 7.12502
lthumb 0.96837 26.6305
rfemur -16.2096 -1.1422 19.432
rtibia 27.3531
rfoot -15.3453 -3.16042
rtoes 9.37317
lfemur -14.9863 7.81291 -19.5572
ltibia 25.112
lfoot -13.467 5.22335
ltoes 3.23159
133
root 0.639382 17.4383 -14.1493 5.61003 -1.25076 -1.24939
lowerback 0.0541325 -0.536968 0.10723
upperback 4.11642 -0.778819 1.62797
thorax 4.2296 -0.417558 1.59042
lowerneck -13.257 0.741735 -1.96472
upperneck 33.152 1.48639 0.387794
head 13.3332 0.447816 0.719202
rclavicle -1.15792e-014 2.54444e-014
rhumerus -24.2694 -16.2488 -79.4318
rradius 24.9068
rwrist 31.262
rhand -18.518 -26.2531
rfingers 7.12502
rthumb 7.77038 -56.0903
lclavicle -1.15792e-014 2.54444e-014
lhumerus -20.3289 1.16406 87.0269
lradius 18.7031
lwrist 2.74895
lhand -25.5828 -3.36035
lfingers 7.12502
lthumb 0.948701 26.6173
rfemur -16.2053 -1.14651 19.432
rtibia 27.3487
rfoot -15.3454 -3.16224
rtoes 9.37439
lfemur -14.9851 7.81134 -19.5574
ltibia 25.1108
lfoot -13.4704 5.21873
ltoes 3.25227
134
root 0.639692 17.4386 -14.149 5.61141 -1.24439 -1.25218
lowerback 0.0563265 -0.537627 0.105425
upperback 4.11575 -0.779606 1.62761
thorax 4.22769 -0.417998 1.59105
lowerneck -13.2593 0.744212 -1.96221
upperneck 33.1488 1.48936 0.387917
head 13.3323 0.449489 0.719249
rclavicle -4.22417e-015 -6.75868e-015
rhumerus -24.2643 -16.2454 -79.4407
rradius 24.9146
rwrist 31.2532
rhand -18.5112 -26.2587
rfingers 7.12502
rthumb 7.77699 -56.0957
lclavicle -4.22417e-015 -6.75868e-015
lhumerus -20.3207 1.14672 87.0348
lradius 18.7046
lwrist 2.75524
lhand -25.6067 -3.37541
lfingers 7.12502
lthumb 0.925568 26.6023
rfemur -16.2009 -1.15156 19.4345
rtibia 27.3419
rfoot -15.3434 -3.16366
rtoes 9.37259
lfemur -14.9851 7.80845 -19.5555
ltibia 25.11
lfoot -13.4718 5.21488
ltoes 3.27
